<svg width="82" height="94" viewBox="0 0 82 94" fill="none" xmlns="http://www.w3.org/2000/svg">
<path d="M1.59781e-06 62.6556C-0.000842819 64.0532 0.333024 65.4249 0.966078 66.6248C1.59913 67.8247 2.50769 68.8079 3.59508 69.4697C4.68246 70.1316 5.908 70.4473 7.14129 70.3833C8.37458 70.3193 9.56947 69.8781 10.5988 69.1064L21.6347 81.5997C21.0798 82.5511 20.7176 83.6297 20.5739 84.7582C20.4303 85.8866 20.5089 87.0371 20.8039 88.1272C21.099 89.2172 21.6033 90.22 22.2808 91.0636C22.9582 91.9073 23.792 92.5709 24.7225 93.0071C25.653 93.4433 26.6572 93.6412 27.6631 93.5866C28.6691 93.5321 29.652 93.2265 30.5414 92.6916C31.4308 92.1567 32.2048 91.4059 32.8079 90.4928C33.411 89.5798 33.8283 88.527 34.03 87.41H47.9717C48.1722 88.5284 48.5889 89.5827 49.1917 90.4974C49.7946 91.412 50.5688 92.1644 51.4587 92.7004C52.3487 93.2365 53.3324 93.543 54.3393 93.598C55.3462 93.6529 56.3514 93.455 57.2828 93.0184C58.2142 92.5818 59.0487 91.9173 59.7265 91.0726C60.4043 90.2279 60.9087 89.2238 61.2033 88.1325C61.498 87.0411 61.5757 85.8895 61.431 84.7601C61.2862 83.6307 60.9224 82.5516 60.3658 81.6001L66.3108 74.87L64.378 72.6819L58.433 79.412C57.5008 78.7131 56.4313 78.2839 55.3184 78.1623C54.2055 78.0407 53.0832 78.2303 52.0501 78.7145C51.0171 79.1987 50.1048 79.9627 49.3936 80.9393C48.6823 81.9159 48.1938 83.0753 47.9708 84.3157H34.03C33.6636 82.3015 32.6055 80.5346 31.0884 79.4035L31.8831 77.1543L29.3452 76.0052L28.5514 78.2522C26.8204 77.8945 25.0343 78.3104 23.5687 79.4126L12.5328 66.9193C13.5065 65.2601 13.8739 63.2382 13.5578 61.2786L23.7428 56.6668L22.7277 53.7937L12.5392 58.4058C11.54 56.6883 9.97922 55.4904 8.2 55.0755V39.2936C9.97922 38.8787 11.54 37.6808 12.5392 35.9634L22.726 40.5764L23.7411 37.7033L13.556 33.0905C13.872 31.131 13.5046 29.109 12.531 27.4498L21.0385 17.8188L19.1065 15.6305L10.599 25.2615C9.75855 24.6333 8.80579 24.2231 7.80892 24.0605C6.81206 23.8978 5.79576 23.9867 4.83278 24.3207C3.8698 24.6547 2.98397 25.2256 2.2387 25.9925C1.49342 26.7594 0.90715 27.7034 0.521846 28.7569C0.136543 29.8103 -0.0382594 30.9471 0.00995499 32.086C0.0581694 33.2249 0.328207 34.3376 0.800736 35.3445C1.27327 36.3514 1.9366 37.2276 2.74324 37.9103C3.54988 38.593 4.47989 39.0654 5.46667 39.2936V55.0765C3.92449 55.4354 2.53875 56.3851 1.54297 57.7657C0.547188 59.1463 0.00225418 60.8733 1.59781e-06 62.6556ZM54.6667 81.2214C55.4776 81.2214 56.2703 81.4936 56.9445 82.0036C57.6187 82.5136 58.1442 83.2385 58.4546 84.0866C58.7649 84.9348 58.8461 85.868 58.6879 86.7683C58.5297 87.6687 58.1392 88.4957 57.5658 89.1449C56.9924 89.794 56.2619 90.236 55.4665 90.4151C54.6712 90.5942 53.8468 90.5023 53.0977 90.151C52.3485 89.7997 51.7082 89.2048 51.2576 88.4415C50.8071 87.6782 50.5667 86.7808 50.5667 85.8628C50.5679 84.6323 51.0003 83.4526 51.7689 82.5824C52.5375 81.7123 53.5797 81.2228 54.6667 81.2214ZM27.3333 81.2214C28.1442 81.2214 28.9369 81.4936 29.6112 82.0036C30.2854 82.5136 30.8109 83.2385 31.1212 84.0866C31.4316 84.9348 31.5128 85.868 31.3546 86.7683C31.1964 87.6687 30.8059 88.4957 30.2325 89.1449C29.6591 89.794 28.9285 90.236 28.1332 90.4151C27.3379 90.5942 26.5135 90.5023 25.7643 90.151C25.0152 89.7997 24.3748 89.2048 23.9243 88.4415C23.4738 87.6782 23.2333 86.7808 23.2333 85.8628C23.2346 84.6323 23.667 83.4526 24.4356 82.5824C25.2042 81.7123 26.2463 81.2228 27.3333 81.2214ZM2.73333 31.7126C2.73333 30.7946 2.9738 29.8972 3.42431 29.1339C3.87482 28.3706 4.51516 27.7757 5.26433 27.4244C6.01351 27.0731 6.83788 26.9812 7.6332 27.1603C8.42853 27.3394 9.15908 27.7815 9.73247 28.4306C10.3059 29.0797 10.6964 29.9067 10.8546 30.8071C11.0128 31.7074 10.9316 32.6407 10.6212 33.4888C10.3109 34.3369 9.78541 35.0618 9.11117 35.5718C8.43693 36.0818 7.64424 36.354 6.83333 36.354C5.74634 36.3526 4.70422 35.8631 3.93559 34.993C3.16697 34.1229 2.7346 32.9431 2.73333 31.7126ZM6.83333 58.0141C7.64424 58.0141 8.43693 58.2864 9.11117 58.7964C9.78541 59.3064 10.3109 60.0313 10.6212 60.8794C10.9316 61.7275 11.0128 62.6607 10.8546 63.5611C10.6964 64.4614 10.3059 65.2885 9.73247 65.9376C9.15908 66.5867 8.42853 67.0288 7.6332 67.2079C6.83788 67.387 6.01351 67.295 5.26433 66.9437C4.51516 66.5924 3.87482 65.9975 3.42431 65.2342C2.9738 64.471 2.73333 63.5736 2.73333 62.6556C2.7346 61.425 3.16697 60.2453 3.93559 59.3752C4.70422 58.505 5.74634 58.0156 6.83333 58.0141ZM82 31.7126C82.0008 30.315 81.667 28.9432 81.0339 27.7433C80.4009 26.5434 79.4923 25.5603 78.4049 24.8984C77.3175 24.2366 76.092 23.9209 74.8587 23.9849C73.6254 24.0488 72.4305 24.4901 71.4012 25.2617L60.3653 12.7685C60.9206 11.8171 61.2831 10.7384 61.427 9.60983C61.5709 8.48121 61.4926 7.33053 61.1976 6.2402C60.9027 5.14986 60.3984 4.14685 59.7209 3.30299C59.0435 2.45912 58.2095 1.79528 57.2789 1.35901C56.3482 0.922734 55.3439 0.724818 54.3377 0.779433C53.3316 0.834047 52.3486 1.13984 51.4591 1.67492C50.5696 2.21 49.7956 2.96112 49.1925 3.87449C48.5895 4.78786 48.1723 5.8409 47.9708 6.95817H34.03C33.7623 5.46352 33.1107 4.09161 32.157 3.01452C31.2033 1.93744 29.9898 1.20312 28.6689 0.903677C27.348 0.604232 25.9783 0.75299 24.7318 1.33129C23.4852 1.9096 22.4172 2.8917 21.6618 4.15442C20.9064 5.41714 20.4971 6.90427 20.4853 8.42928C20.4735 9.95429 20.8598 11.4493 21.5956 12.7268C22.3314 14.0043 23.384 15.0074 24.6215 15.6103C25.8589 16.2132 27.226 16.389 28.5514 16.1158L29.3452 18.3628L31.8831 17.2137L31.0876 14.9647C32.6049 13.8337 33.6634 12.0668 34.03 10.0525H47.9717C48.3381 12.0666 49.3962 13.8336 50.9133 14.9647L49.5719 18.761L52.1096 19.9101L53.4503 16.116C55.1813 16.4737 56.9674 16.0578 58.433 14.9556L69.4689 27.4488C68.4952 29.108 68.1278 31.13 68.4439 33.0895L58.2589 37.7014L59.274 40.5745L69.4608 35.9614C69.9554 36.8122 70.5931 37.5444 71.3377 38.1161C72.0822 38.6878 72.9189 39.088 73.8 39.2936V55.0765C72.0208 55.4914 70.46 56.6893 69.4608 58.4067L65.424 56.5786L64.409 59.4516L68.4439 61.2786C68.1278 63.2382 68.4952 65.2601 69.4689 66.9193L66.7697 69.975L68.7025 72.163L71.4017 69.1074C72.2421 69.7358 73.195 70.1461 74.1919 70.3089C75.1888 70.4717 76.2052 70.3829 77.1683 70.0489C78.1314 69.7149 79.0173 69.1439 79.7627 68.3769C80.508 67.6099 81.0943 66.6658 81.4796 65.6123C81.8649 64.5587 82.0397 63.4218 81.9914 62.2828C81.9431 61.1438 81.6729 60.0311 81.2002 59.0241C80.7275 58.0172 80.064 57.1411 79.2572 56.4584C78.4504 55.7758 77.5202 55.3035 76.5333 55.0755V39.2936C78.0758 38.9347 79.4618 37.9846 80.4576 36.6037C81.4534 35.2227 81.9981 33.4953 82 31.7126ZM27.3333 13.1468C26.5224 13.1468 25.7297 12.8746 25.0555 12.3645C24.3813 11.8545 23.8557 11.1296 23.5454 10.2815C23.2351 9.43342 23.1539 8.50018 23.3121 7.59982C23.4703 6.69947 23.8608 5.87244 24.4342 5.22332C25.0076 4.5742 25.7381 4.13215 26.5335 3.95306C27.3288 3.77397 28.1532 3.86588 28.9023 4.21718C29.6515 4.56848 30.2918 5.16339 30.7424 5.92667C31.1929 6.68995 31.4333 7.58733 31.4333 8.50532C31.4321 9.73587 30.9997 10.9156 30.2311 11.7857C29.4624 12.6559 28.4203 13.1453 27.3333 13.1468ZM54.6667 13.1468C53.8558 13.1468 53.0631 12.8746 52.3888 12.3645C51.7146 11.8545 51.1891 11.1296 50.8788 10.2815C50.5684 9.43342 50.4872 8.50018 50.6454 7.59982C50.8036 6.69947 51.1941 5.87244 51.7675 5.22332C52.3409 4.5742 53.0715 4.13215 53.8668 3.95306C54.6621 3.77397 55.4865 3.86588 56.2357 4.21718C56.9848 4.56848 57.6252 5.16339 58.0757 5.92667C58.5262 6.68995 58.7667 7.58733 58.7667 8.50532C58.7654 9.73587 58.333 10.9156 57.5644 11.7857C56.7958 12.6559 55.7537 13.1453 54.6667 13.1468ZM79.2667 62.6556C79.2667 63.5736 79.0262 64.471 78.5757 65.2342C78.1252 65.9975 77.4848 66.5924 76.7357 66.9437C75.9865 67.295 75.1621 67.387 74.3668 67.2079C73.5715 67.0288 72.8409 66.5867 72.2675 65.9376C71.6941 65.2885 71.3036 64.4614 71.1454 63.5611C70.9872 62.6607 71.0684 61.7275 71.3788 60.8794C71.6891 60.0313 72.2146 59.3064 72.8888 58.7964C73.5631 58.2864 74.3558 58.0141 75.1667 58.0141C76.2537 58.0156 77.2958 58.505 78.0644 59.3752C78.833 60.2453 79.2654 61.425 79.2667 62.6556ZM75.1667 36.354C74.3558 36.354 73.5631 36.0818 72.8888 35.5718C72.2146 35.0618 71.6891 34.3369 71.3788 33.4888C71.0684 32.6407 70.9872 31.7074 71.1454 30.8071C71.3036 29.9067 71.6941 29.0797 72.2675 28.4306C72.8409 27.7815 73.5715 27.3394 74.3668 27.1603C75.1621 26.9812 75.9865 27.0731 76.7357 27.4244C77.4848 27.7757 78.1252 28.3706 78.5757 29.1339C79.0262 29.8972 79.2667 30.7946 79.2667 31.7126C79.2654 32.9431 78.833 34.1229 78.0644 34.993C77.2958 35.8631 76.2537 36.3526 75.1667 36.354ZM28.7 33.2597V68.8442C28.7009 69.6646 28.9891 70.451 29.5015 71.0311C30.0139 71.6112 30.7087 71.9375 31.4333 71.9385H46.4667V75.0328H31.4333C29.984 75.031 28.5945 74.3783 27.5696 73.2182C26.5448 72.058 25.9683 70.4849 25.9667 68.8442V33.2597H28.7ZM60.1333 70.3913V53.4825C60.1353 52.6695 59.9948 51.8642 59.72 51.113C59.4452 50.3619 59.0415 49.6799 58.5323 49.1066L56.0333 46.2778V57.3732L58.3664 60.0144L56.4336 62.2025L53.7003 59.1082L49.0826 53.8807C48.9403 53.7197 48.7714 53.5919 48.5854 53.5047C48.3995 53.4176 48.2002 53.3727 47.999 53.3727C47.7978 53.3727 47.5985 53.4176 47.4126 53.5048C47.2267 53.592 47.0577 53.7198 46.9154 53.8809C46.7732 54.042 46.6603 54.2333 46.5833 54.4438C46.5063 54.6543 46.4667 54.8798 46.4667 55.1077C46.4667 55.3355 46.5064 55.5611 46.5834 55.7715C46.6604 55.982 46.7733 56.1732 46.9156 56.3343L51.5331 61.5616C51.7565 61.8145 51.8956 62.1472 51.9268 62.5031C51.9579 62.8591 51.8792 63.2163 51.7039 63.5139C51.0088 64.6977 50.6018 66.068 50.5238 67.4868C50.4458 68.9055 50.6996 70.3224 51.2597 71.5946L51.7893 72.7937C51.8842 73.0085 51.9335 73.2455 51.9333 73.4856V75.0328H49.2V73.851L48.8146 72.9784C48.1254 71.4128 47.7701 69.6861 47.7772 67.9369C47.7843 66.1877 48.1536 64.4648 48.8554 62.9064L44.9826 58.5222C44.1883 57.6152 43.7438 56.3889 43.7462 55.1117C43.7487 53.8345 44.198 52.6104 44.9958 51.7073C45.7935 50.8042 46.8748 50.2957 48.003 50.293C49.1312 50.2903 50.2145 50.7936 51.0156 51.6929L53.3 54.2789V27.0711C53.2991 26.2508 53.0109 25.4643 52.4985 24.8842C51.9861 24.3041 51.2913 23.9778 50.5667 23.9768H47.3113L46.3223 26.2159C46.2088 26.4729 46.0343 26.689 45.8184 26.8401C45.6026 26.9911 45.3538 27.0711 45.1 27.0711H36.9C36.6462 27.0711 36.3974 26.9911 36.1816 26.8401C35.9657 26.689 35.7912 26.4729 35.6777 26.2159L34.6887 23.9768H31.4333C30.7087 23.9778 30.0139 24.3041 29.5015 24.8842C28.9891 25.4643 28.7009 26.2508 28.7 27.0711V30.1654H25.9667V27.0711C25.9683 25.4304 26.5448 23.8574 27.5696 22.6972C28.5945 21.537 29.984 20.8844 31.4333 20.8825H50.5667C52.016 20.8844 53.4055 21.537 54.4304 22.6972C55.4552 23.8574 56.0317 25.4304 56.0333 27.0711V41.9017L60.4649 46.9186C61.2287 47.7785 61.8343 48.8015 62.2466 49.9282C62.6588 51.0549 62.8696 52.263 62.8667 53.4825V70.3913H60.1333ZM38.2667 65.7499H43.7333V68.8442H38.2667V65.7499ZM44.1336 46.731C43.3019 45.7915 42.1749 45.2638 41 45.2638C39.8251 45.2638 38.6981 45.7915 37.8664 46.731L35.9336 44.5429C37.2783 43.024 39.1004 42.171 41 42.171C42.8996 42.171 44.7217 43.024 46.0664 44.5429L44.1336 46.731ZM48.2336 42.8403C47.2837 41.7649 46.1559 40.9118 44.9148 40.3299C43.6736 39.7479 42.3434 39.4483 41 39.4483C39.6566 39.4483 38.3263 39.7479 37.0852 40.3299C35.8441 40.9118 34.7163 41.7649 33.7664 42.8403L31.8336 40.6524C34.2666 37.9043 37.5631 36.361 41 36.361C44.4369 36.361 47.7334 37.9043 50.1664 40.6524L48.2336 42.8403ZM42.3667 51.8255V54.9198H39.6333V51.8255H42.3667ZM34.1667 51.8255H36.9V54.9198H34.1667V51.8255Z" fill="#DCDCDC"/>
</svg>
