<svg width="64" height="107" viewBox="0 0 64 107" fill="none" xmlns="http://www.w3.org/2000/svg">
<path d="M2.90909 97.2699V21.2225H0V97.2699C0 102.156 3.25455 106.113 7.27273 106.113H40.7273V102.576H7.27273C4.87273 102.576 2.90909 100.188 2.90909 97.2699Z" fill="#DCDCDC"/>
<path d="M18.9092 95.5024H33.4546V99.0387H18.9092V95.5024Z" fill="#DCDCDC"/>
<path d="M5.81836 33.6017C5.81836 34.5744 6.47291 35.3702 7.27291 35.3702H8.85473C9.16382 36.4092 9.96382 37.1386 10.9093 37.1386C11.8547 37.1386 12.6547 36.4092 12.9638 35.3702H16.1275C16.4366 36.4092 17.2366 37.1386 18.182 37.1386C19.1275 37.1386 19.9275 36.4092 20.2366 35.3702H21.8184C22.6184 35.3702 23.2729 34.5744 23.2729 33.6017V28.2964C23.2729 27.6332 22.9639 27.0142 22.4729 26.7048L20.0002 25.2016L18.7638 22.1952C18.5093 21.5983 18.0184 21.2225 17.4548 21.2225H11.6366C11.0911 21.2225 10.582 21.5983 10.3275 22.1952L9.09109 25.2016L6.61836 26.7048C6.12745 27.0142 5.81836 27.6111 5.81836 28.2964V33.6017ZM8.72746 29.3795L10.8366 28.0974C11.1093 27.9206 11.3456 27.6553 11.4911 27.3016L12.5456 24.7373H16.5638L17.6184 27.3016C17.7638 27.6332 17.982 27.9206 18.2729 28.0974L20.382 29.3795V31.8333H8.74564V29.3795H8.72746Z" fill="#DCDCDC"/>
<path d="M40.7272 19.4544V21.7976L38.7272 19.8523C38.1999 19.3439 37.4363 19.3439 36.909 19.8523L29.6363 26.9262C29.1454 27.3904 28.9635 28.1862 29.1635 28.8936C29.3635 29.601 29.9272 30.0873 30.5272 30.0873V35.3927C30.5272 36.3654 31.1817 37.1612 31.9817 37.1612H43.6181C44.4181 37.1612 45.0727 36.3654 45.0727 35.3927V30.0873C45.6909 30.0873 46.2363 29.6231 46.4363 28.8936C46.6363 28.1862 46.4545 27.3904 45.9636 26.9262L43.5999 24.6272V19.4544H40.7272ZM42.1818 28.2968V33.6022H39.2727V30.0652H36.3636V33.6022H33.4545V28.2968C33.4545 28.1199 33.4363 27.9431 33.3999 27.7883L37.8181 23.4777L42.2363 27.7883C42.1999 27.9431 42.1818 28.1199 42.1818 28.2968Z" fill="#DCDCDC"/>
<path d="M43.5638 48.3249L44.5275 45.9816H46.5457V42.4445H43.6366C43.0911 42.4445 42.582 42.8204 42.3275 43.4172L41.273 45.9816H30.5457C30.1094 45.9816 29.6912 46.2248 29.4185 46.6227C29.1457 47.0206 29.0366 47.5733 29.1094 48.0818L30.5639 56.9244C30.6185 57.2339 30.7457 57.5213 30.9094 57.7645C30.673 58.1845 30.5457 58.693 30.5457 59.2456C30.5457 60.7047 31.5275 61.8984 32.7275 61.8984C33.9275 61.8984 34.9093 60.7047 34.9093 59.2456C34.9093 58.9361 34.8548 58.6488 34.7821 58.3614H37.9457C37.873 58.6488 37.8184 58.9361 37.8184 59.2456C37.8184 60.7047 38.8002 61.8984 40.0002 61.8984C41.2002 61.8984 42.182 60.7047 42.182 59.2456C42.182 58.693 42.0366 58.1845 41.8184 57.7645C41.982 57.5434 42.1093 57.256 42.1639 56.9244L43.5638 48.3249ZM40.4002 49.5187L39.5275 54.8243H33.1821L32.3094 49.5187H40.4002Z" fill="#DCDCDC"/>
<path d="M5.81836 74.2786C5.81836 75.2512 6.47291 76.0471 7.27292 76.0471H8.72748V84.8897C8.72748 85.8624 9.38203 86.6582 10.182 86.6582C10.982 86.6582 11.6366 85.8624 11.6366 84.8897V83.1212H18.9094V84.8897C18.9094 85.8624 19.5639 86.6582 20.3639 86.6582C21.1639 86.6582 21.8185 85.8624 21.8185 84.8897V80.6674L22.6185 81.1537L23.9276 77.9925L21.4003 76.445C20.7094 74.6323 19.2003 73.3943 17.4548 73.3943H14.0002L13.9457 72.9522C13.6912 70.6752 12.073 68.973 10.182 68.973C9.38203 68.973 8.72748 69.7688 8.72748 70.7415V71.051L7.00019 71.4489C6.30927 71.6037 5.81836 72.3332 5.81836 73.1953V74.2786ZM11.6366 76.3345C11.9093 76.7103 12.2911 76.9313 12.7275 76.9313H17.4548C18.2548 76.9313 18.9094 77.7272 18.9094 78.6999V79.5841H11.6366V76.3345Z" fill="#DCDCDC"/>
<path d="M60.6909 65.5473L52.3636 54.1622V8.8428C52.3636 3.95715 49.1091 0 45.0909 0H7.27273C3.25455 0 0 3.95715 0 8.8428V17.6856H2.90909V8.8428C2.90909 5.92468 4.87273 3.53712 7.27273 3.53712H45.0909C47.4909 3.53712 49.4545 5.92468 49.4545 8.8428V54.8254V71.7814L44.7091 66.0115C43.4545 64.4861 41.8 63.6682 40.0364 63.6682C36.4 63.6682 33.4364 67.2716 33.4364 71.693C33.4364 73.8374 34.1273 75.8491 35.3636 77.3745L35.7455 77.8388H33.4545V74.3016H30.5455V79.6073C30.5455 80.58 31.2 81.3759 32 81.3759H35.4727L33.6182 85.8857L36.2182 87.4774L38.7091 81.4201L43.2182 86.9026C40.8545 91.6114 40.6182 97.4477 42.6909 102.466L43.6545 104.787V106.136H46.5636V104.367C46.5636 104.102 46.5091 103.814 46.4182 103.571L45.3091 100.874C43.5455 96.6076 43.9273 91.5672 46.2909 87.7427C46.7273 87.0353 46.6727 86.0626 46.1636 85.4215L37.4909 74.8764C36.8 74.0364 36.4182 72.9089 36.4182 71.7151C36.4182 69.2391 38.0727 67.2274 40.1091 67.2274C41.0909 67.2274 42.0182 67.6917 42.7091 68.5317L49.9273 77.3082L54.2909 82.6139L56.3455 80.1158L52.3636 75.3186V59.4678L58.5273 67.8906C60.1818 70.1676 61.0909 73.0858 61.0909 76.1144V106.114H64V76.1144C64 72.2236 62.8182 68.4654 60.6909 65.5473Z" fill="#DCDCDC"/>
<path d="M5.81836 10.6118H8.72754V14.148H5.81836V10.6118Z" fill="#DCDCDC"/>
<path d="M11.6368 10.6118H14.5459V14.148H11.6368V10.6118Z" fill="#DCDCDC"/>
<path d="M17.4543 10.6118H20.3635V14.148H17.4543V10.6118Z" fill="#DCDCDC"/>
<path d="M15.9999 60.1314V54.8253H20.3635V51.2879H15.9999V45.9818H13.0908V51.2879H8.72717V54.8253H13.0908V60.1314H15.9999Z" fill="#DCDCDC"/>
</svg>
