<svg width="95" height="108" viewBox="0 0 95 108" fill="none" xmlns="http://www.w3.org/2000/svg">
<path d="M12.2942 90.9681C10.6563 89.7436 8.67452 89.2503 6.73315 89.5838C4.79177 89.9174 3.02913 91.0541 1.78701 92.7734C0.544888 94.4928 -0.08821 96.6724 0.0104759 98.8895C0.109162 101.107 0.9326 103.203 2.32112 104.773C3.70965 106.343 5.56431 107.274 7.5255 107.385C9.48669 107.497 11.4146 106.781 12.9355 105.377C14.4564 103.973 15.4619 101.98 15.757 99.7852C16.052 97.5905 15.6157 95.3501 14.5325 93.4985L23.7602 83.0666V98.4282C23.7626 100.8 24.5971 103.074 26.0806 104.751C27.5641 106.428 29.5755 107.371 31.6736 107.374H58.5789V103.796H31.6736C30.4147 103.794 29.2079 103.228 28.3178 102.222C27.4277 101.216 26.927 99.8512 26.9256 98.4282V79.4882L37.5407 67.4878L35.3024 64.9574L26.9256 74.4274V63.02L30.5732 61.7004L29.6086 58.2922L26.9256 59.2626V48.1338L35.9392 51.3946L36.9039 47.9862L26.9256 44.3765V35.8063H23.7602V43.2314L15.7998 40.3517C16.0144 38.145 15.4964 35.9268 14.3464 34.1273C13.1964 32.3277 11.4963 31.0751 9.57565 30.6122C7.65503 30.1494 5.6508 30.5093 3.95159 31.6221C2.25238 32.735 0.979264 34.5216 0.379107 36.6354C-0.22105 38.7492 -0.105485 41.0397 0.703395 43.0626C1.51227 45.0856 2.95683 46.6969 4.75696 47.5841C6.55709 48.4714 8.58452 48.5713 10.4461 47.8645C12.3077 47.1578 13.8708 45.6947 14.8324 43.759L23.7602 46.9888V60.4077L14.8324 63.6375C13.8719 61.7054 12.3111 60.2454 10.4526 59.5403C8.59399 58.8353 6.57006 58.9355 4.77314 59.8216C2.97622 60.7076 1.53432 62.3164 0.72697 64.336C-0.0803794 66.3555 -0.195664 68.6421 0.403467 70.7523C1.0026 72.8625 2.27346 74.646 3.96968 75.7571C5.66591 76.8683 7.66665 77.2278 9.58405 76.7661C11.5014 76.3044 13.1989 75.0543 14.3473 73.2582C15.4958 71.462 16.0134 69.2478 15.7998 67.0448L23.7602 64.165V78.0058L12.2942 90.9681ZM7.93356 103.796C6.99449 103.796 6.07651 103.481 5.29571 102.891C4.5149 102.301 3.90634 101.463 3.54697 100.482C3.18761 99.5014 3.09358 98.4222 3.27679 97.381C3.45999 96.3398 3.91219 95.3834 4.57621 94.6327C5.24023 93.882 6.08624 93.3708 7.00727 93.1637C7.92829 92.9566 8.88295 93.0629 9.75054 93.4692C10.6181 93.8754 11.3597 94.5634 11.8814 95.4461C12.4031 96.3288 12.6816 97.3665 12.6816 98.4282C12.6801 99.8512 12.1794 101.216 11.2893 102.222C10.3992 103.228 9.19235 103.794 7.93356 103.796ZM7.93356 44.7523C6.99449 44.7523 6.07651 44.4375 5.29571 43.8477C4.5149 43.2579 3.90634 42.4196 3.54697 41.4388C3.18761 40.458 3.09358 39.3787 3.27679 38.3375C3.45999 37.2963 3.91219 36.3399 4.57621 35.5892C5.24023 34.8385 6.08624 34.3273 7.00727 34.1202C7.92829 33.9131 8.88295 34.0194 9.75054 34.4257C10.6181 34.8319 11.3597 35.5199 11.8814 36.4026C12.4031 37.2853 12.6816 38.3231 12.6816 39.3847C12.6801 40.8077 12.1794 42.172 11.2893 43.1783C10.3992 44.1846 9.19235 44.7506 7.93356 44.7523ZM7.93356 73.3794C6.99449 73.3794 6.07651 73.0646 5.29571 72.4748C4.5149 71.885 3.90634 71.0467 3.54697 70.0659C3.18761 69.0851 3.09358 68.0059 3.27679 66.9647C3.45999 65.9234 3.91219 64.967 4.57621 64.2164C5.24023 63.4657 6.08624 62.9545 7.00727 62.7474C7.92829 62.5403 8.88295 62.6466 9.75054 63.0528C10.6181 63.4591 11.3597 64.147 11.8814 65.0297C12.4031 65.9124 12.6816 66.9502 12.6816 68.0118C12.6801 69.4349 12.1794 70.7992 11.2893 71.8054C10.3992 72.8117 9.19235 73.3777 7.93356 73.3794ZM61.6042 54.7514C61.4789 54.4375 61.2761 54.1712 61.0202 53.9844C60.7643 53.7976 60.4662 53.6982 60.1616 53.6982H52.6552L56.9567 32.6305C57.0367 32.2367 56.9966 31.8239 56.8427 31.4593C56.6889 31.0946 56.4304 30.7996 56.1093 30.6222C55.7883 30.4447 55.4235 30.3954 55.0745 30.4821C54.7255 30.5688 54.4126 30.7865 54.187 31.0998L33.6123 59.7269C33.4238 59.9893 33.3049 60.3066 33.2693 60.6422C33.2338 60.9778 33.283 61.3179 33.4114 61.6231C33.5397 61.9284 33.7419 62.1863 33.9945 62.367C34.2472 62.5477 34.5399 62.6438 34.8389 62.6442H42.0889L34.9311 85.3019C34.8072 85.6937 34.8079 86.122 34.9331 86.5132C35.0583 86.9044 35.3002 87.2341 35.6172 87.4455C35.9341 87.6568 36.3064 87.7367 36.6698 87.6714C37.0333 87.6061 37.3652 87.3997 37.6086 87.0876L61.3486 56.6712C61.5501 56.413 61.6814 56.0944 61.7267 55.7539C61.7721 55.4134 61.7295 55.0653 61.6042 54.7514ZM40.6801 77.7426L45.8254 61.4562C45.9106 61.1862 45.9371 60.897 45.9028 60.613C45.8685 60.329 45.7744 60.0585 45.6283 59.8242C45.4822 59.5899 45.2885 59.3987 45.0634 59.2667C44.8383 59.1348 44.5885 59.0659 44.3349 59.0658H38.1641L52.3359 39.3473L49.1234 55.0849C49.0699 55.3471 49.0693 55.6197 49.1219 55.8823C49.1744 56.1448 49.2787 56.3905 49.4269 56.6012C49.5751 56.8119 49.7635 56.982 49.978 57.099C50.1924 57.2159 50.4275 57.2766 50.6656 57.2766H56.6544L40.6801 77.7426ZM53.3674 9.49234L51.1291 12.0227C50.1659 10.9362 48.8609 10.326 47.5002 10.326C46.1396 10.326 44.8345 10.9362 43.8714 12.0227L41.6331 9.49234C43.1904 7.73582 45.3004 6.74936 47.5002 6.74936C49.7001 6.74936 51.8101 7.73582 53.3674 9.49234ZM55.8771 7.52422C54.777 6.2806 53.4711 5.29411 52.0337 4.62107C50.5964 3.94803 49.056 3.60162 47.5002 3.60162C45.9445 3.60162 44.404 3.94803 42.9667 4.62107C41.5294 5.29411 40.2234 6.2806 39.1234 7.52422L36.8851 4.99318C39.7026 1.81516 43.5201 0.0303741 47.5002 0.0303741C51.4803 0.0303741 55.2979 1.81516 58.1154 4.99318L55.8771 7.52422ZM7.93356 17.9143C9.48492 17.916 11.0021 17.399 12.2942 16.4284L38.4676 46.0172L40.7058 43.4868L26.9256 27.9083V23.2819C26.927 21.8588 27.4277 20.4945 28.3178 19.4882C29.2079 18.4819 30.4147 17.9159 31.6736 17.9143H38.6088L39.7541 20.5037C39.8855 20.8009 40.0876 21.0508 40.3376 21.2255C40.5876 21.4002 40.8757 21.4927 41.1696 21.4927H53.8309C54.1248 21.4927 54.4129 21.4002 54.6629 21.2255C54.9129 21.0508 55.1149 20.8009 55.2464 20.5037L56.3916 17.9143H63.3269C64.5857 17.9159 65.7926 18.4819 66.6827 19.4882C67.5728 20.4945 68.0735 21.8588 68.0749 23.2819V27.9083L55.8771 41.6979L58.1154 44.2282L68.0749 32.9691V44.3765L58.0966 47.9862L59.0612 51.3946L68.0749 48.1338V55.4874H71.2402V46.9888L80.1681 43.759C81.1285 45.6911 82.6893 47.1511 84.5479 47.8561C86.4065 48.5612 88.4304 48.4609 90.2273 47.5749C92.0242 46.6888 93.4661 45.0801 94.2735 43.0605C95.0808 41.041 95.1961 38.7544 94.597 36.6442C93.9979 34.534 92.727 32.7505 91.0308 31.6394C89.3345 30.5282 87.3338 30.1687 85.4164 30.6304C83.499 31.0921 81.8016 32.3422 80.6531 34.1383C79.5047 35.9345 78.9871 38.1487 79.2006 40.3517L71.2402 43.2314V29.3907L82.7063 16.4284C84.3442 17.6529 86.3259 18.1462 88.2673 17.8126C90.2087 17.4791 91.9713 16.3424 93.2134 14.623C94.4556 12.9037 95.0887 10.7241 94.99 8.50702C94.8913 6.28991 94.0679 4.19322 92.6793 2.6235C91.2908 1.05378 89.4361 0.122891 87.475 0.0113268C85.5138 -0.100237 83.5858 0.615477 82.0649 2.01969C80.544 3.4239 79.5386 5.41656 79.2435 7.61127C78.9484 9.80598 79.3848 12.0464 80.468 13.898L71.2402 24.3299V23.2819C71.2379 20.9101 70.4034 18.6362 68.9199 16.9591C67.4363 15.282 65.4249 14.3386 63.3269 14.3359H31.6736C29.5755 14.3386 27.5641 15.282 26.0806 16.9591C24.5971 18.6362 23.7626 20.9101 23.7602 23.2819V24.3299L14.5325 13.898C15.503 12.2358 15.9549 10.255 15.8166 8.26949C15.6782 6.28402 14.9576 4.40756 13.7688 2.93765C12.5801 1.46774 10.9914 0.488492 9.25448 0.155178C7.5176 -0.178136 5.732 0.153558 4.18079 1.09767C2.62958 2.04178 1.40155 3.54427 0.6914 5.36692C-0.0187509 7.18957 -0.170374 9.22806 0.26057 11.1592C0.691514 13.0903 1.68036 14.8035 3.07033 16.0272C4.46029 17.2509 6.17183 17.915 7.93356 17.9143ZM87.0669 34.0171C88.006 34.0171 88.9239 34.3319 89.7047 34.9217C90.4855 35.5115 91.0941 36.3498 91.4535 37.3306C91.8128 38.3114 91.9069 39.3906 91.7237 40.4318C91.5405 41.473 91.0883 42.4295 90.4242 43.1801C89.7602 43.9308 88.9142 44.442 87.9932 44.6491C87.0722 44.8562 86.1175 44.7499 85.2499 44.3437C84.3823 43.9374 83.6408 43.2494 83.1191 42.3667C82.5974 41.484 82.3189 40.4463 82.3189 39.3847C82.3204 37.9616 82.8211 36.5973 83.7112 35.591C84.6013 34.5848 85.8081 34.0187 87.0669 34.0171ZM87.0669 3.60074C88.006 3.60074 88.9239 3.91554 89.7047 4.50534C90.4855 5.09514 91.0941 5.93344 91.4535 6.91424C91.8128 7.89504 91.9069 8.97428 91.7237 10.0155C91.5405 11.0567 91.0883 12.0131 90.4242 12.7638C89.7602 13.5145 88.9142 14.0257 87.9932 14.2328C87.0722 14.4399 86.1175 14.3336 85.2499 13.9273C84.3823 13.5211 83.6408 12.8331 83.1191 11.9504C82.5974 11.0677 82.3189 10.0299 82.3189 8.96833C82.3204 7.54526 82.8211 6.18096 83.7112 5.1747C84.6013 4.16844 85.8081 3.60239 87.0669 3.60074ZM7.93356 3.60074C8.87262 3.60074 9.7906 3.91554 10.5714 4.50534C11.3522 5.09514 11.9608 5.93344 12.3201 6.91424C12.6795 7.89504 12.7735 8.97428 12.5903 10.0155C12.4071 11.0567 11.9549 12.0131 11.2909 12.7638C10.6269 13.5145 9.78087 14.0257 8.85984 14.2328C7.93882 14.4399 6.98416 14.3336 6.11657 13.9273C5.24899 13.5211 4.50745 12.8331 3.98574 11.9504C3.46402 11.0677 3.18555 10.0299 3.18555 8.96833C3.18702 7.54526 3.68773 6.18096 4.57783 5.1747C5.46794 4.16844 6.67476 3.60239 7.93356 3.60074ZM87.0669 59.0658C85.6615 59.0671 84.2818 59.4912 83.0694 60.2946C81.857 61.098 80.8556 62.2518 80.1681 63.6375L63.8092 57.7195L62.8446 61.1279L68.0749 63.02V74.4277L64.1744 70.0182C63.0381 68.7336 61.497 68.0119 59.89 68.0119C58.283 68.0118 56.7419 68.7335 55.6056 70.0181C54.4692 71.3026 53.8309 73.0449 53.8308 74.8616C53.8308 76.6782 54.4692 78.4205 55.6055 79.7051L61.402 86.258L61.2912 86.5085C59.9334 89.5581 59.2642 92.9402 59.3433 96.3531C59.4223 99.766 60.2472 103.104 61.7442 106.069V107.374H64.9096V105.585C64.9095 105.261 64.8315 104.943 64.684 104.664C63.3596 102.184 62.6133 99.3636 62.515 96.4681C62.4166 93.5726 62.9694 90.6962 64.1216 88.1078L64.7424 86.704C64.8909 86.3681 64.9422 85.9878 64.8889 85.6171C64.8357 85.2465 64.6806 84.9041 64.4456 84.6386L57.8434 77.175C57.3075 76.5598 57.0085 75.7302 57.0114 74.867C57.0144 74.0037 57.319 73.1767 57.859 72.5662C58.3989 71.9558 59.1305 71.6113 59.8941 71.608C60.6577 71.6046 61.3916 71.9426 61.9357 72.5483L68.538 80.0122L73.286 85.3798L75.5243 82.8494L71.2402 78.0058V66.9636L78.4184 75.0791C79.1555 75.9078 79.7399 76.8936 80.1378 77.9793C80.5356 79.065 80.739 80.2292 80.7362 81.4044V107.374H83.9016V81.4044C83.905 79.2735 83.4248 77.1773 82.5068 75.3162C83.5232 76.1271 84.6943 76.6557 85.9252 76.859C87.1561 77.0622 88.412 76.9345 89.5911 76.4861C90.7701 76.0378 91.839 75.2814 92.711 74.2784C93.5829 73.2754 94.2334 72.0542 94.6095 70.7137C94.9857 69.3733 95.0769 67.9514 94.8758 66.5636C94.6747 65.1758 94.187 63.8612 93.4522 62.7265C92.7174 61.5917 91.7563 60.6689 90.6468 60.0329C89.5373 59.3968 88.3109 59.0655 87.0669 59.0658ZM74.1828 65.2294L79.2006 67.0448C79.0495 68.6001 79.2638 70.173 79.822 71.6048L74.1828 65.2294ZM87.0669 73.3794C86.1278 73.3794 85.2099 73.0646 84.4291 72.4748C83.6482 71.885 83.0397 71.0467 82.6803 70.0659C82.321 69.0851 82.2269 68.0059 82.4101 66.9647C82.5933 65.9234 83.0455 64.967 83.7096 64.2164C84.3736 63.4657 85.2196 62.9545 86.1406 62.7474C87.0616 62.5403 88.0163 62.6466 88.8839 63.0528C89.7515 63.4591 90.493 64.147 91.0147 65.0297C91.5364 65.9124 91.8149 66.9502 91.8149 68.0118C91.8134 69.4349 91.3127 70.7992 90.4226 71.8054C89.5325 72.8117 88.3257 73.3777 87.0669 73.3794ZM41.1696 100.217V96.639H53.8309V100.217H41.1696Z" fill="#62D6B3"/>
</svg>
